<svg width="32" height="32" viewBox="0 0 32 32" fill="none" xmlns="http://www.w3.org/2000/svg">
<mask id="mask0_460288_4941" style="mask-type:alpha" maskUnits="userSpaceOnUse" x="0" y="0" width="32" height="32">
<rect width="32" height="32" fill="#D9D9D9"/>
</mask>
<g mask="url(#mask0_460288_4941)">
<path d="M25.3294 18.6667C25.0134 18.6667 24.7499 18.5602 24.5388 18.3473C24.3277 18.1343 24.2222 17.8704 24.2222 17.5556V14.4445H21.111C20.7962 14.4445 20.5323 14.3376 20.3194 14.1239C20.1064 13.9102 19.9999 13.6454 19.9999 13.3295C19.9999 13.0136 20.1064 12.7501 20.3194 12.5389C20.5323 12.3278 20.7962 12.2223 21.111 12.2223H24.2222V9.11115C24.2222 8.79635 24.329 8.53246 24.5427 8.31948C24.7564 8.10653 25.0212 8.00005 25.3372 8.00005C25.6531 8.00005 25.9166 8.10653 26.1277 8.31948C26.3388 8.53246 26.4444 8.79635 26.4444 9.11115V12.2223H29.5555C29.8703 12.2223 30.1342 12.3291 30.3472 12.5428C30.5601 12.7566 30.6666 13.0214 30.6666 13.3373C30.6666 13.6532 30.5601 13.9167 30.3472 14.1278C30.1342 14.3389 29.8703 14.4445 29.5555 14.4445H26.4444V17.5556C26.4444 17.8704 26.3375 18.1343 26.1238 18.3473C25.9101 18.5602 25.6453 18.6667 25.3294 18.6667ZM11.9999 15.9778C10.5333 15.9778 9.31473 15.4926 8.34435 14.5223C7.374 13.5519 6.88882 12.3334 6.88882 10.8667C6.88882 9.40005 7.374 8.18154 8.34435 7.21118C9.31473 6.2408 10.5333 5.75562 11.9999 5.75562C13.4666 5.75562 14.6851 6.2408 15.6555 7.21118C16.6258 8.18154 17.111 9.40005 17.111 10.8667C17.111 12.3334 16.6258 13.5519 15.6555 14.5223C14.6851 15.4926 13.4666 15.9778 11.9999 15.9778ZM2.44435 26.6667C2.12955 26.6667 1.86566 26.5602 1.65269 26.3473C1.43973 26.1343 1.33325 25.8704 1.33325 25.5556V23.3334C1.33325 22.563 1.5314 21.8612 1.92769 21.2279C2.324 20.5945 2.8666 20.1186 3.55549 19.8C5.12586 19.0815 6.58022 18.5649 7.91855 18.25C9.25691 17.9352 10.6162 17.7779 11.9963 17.7779C13.3765 17.7779 14.737 17.9352 16.0777 18.25C17.4184 18.5649 18.8666 19.0815 20.4222 19.8C21.111 20.1334 21.6573 20.613 22.061 21.2389C22.4647 21.8649 22.6666 22.563 22.6666 23.3334V25.5556C22.6666 25.8704 22.5601 26.1343 22.3472 26.3473C22.1342 26.5602 21.8703 26.6667 21.5555 26.6667H2.44435ZM3.55545 24.4445H20.4444V23.3334C20.4444 23.0149 20.3648 22.7149 20.2055 22.4334C20.0462 22.1519 19.8073 21.9408 19.4888 21.8C18.0518 21.0963 16.7629 20.6204 15.6222 20.3723C14.4814 20.1241 13.274 20 11.9999 20C10.7259 20 9.51844 20.1278 8.37769 20.3834C7.23695 20.6389 5.94066 21.1112 4.48882 21.8C4.19991 21.9408 3.97212 22.1519 3.80545 22.4334C3.63879 22.7149 3.55545 23.0149 3.55545 23.3334V24.4445ZM11.9999 13.7556C12.8221 13.7556 13.5092 13.4797 14.061 12.9278C14.6129 12.376 14.8888 11.6889 14.8888 10.8667C14.8888 10.0445 14.6129 9.35746 14.061 8.80562C13.5092 8.25375 12.8221 7.97782 11.9999 7.97782C11.1777 7.97782 10.4907 8.25375 9.93882 8.80562C9.38695 9.35746 9.11102 10.0445 9.11102 10.8667C9.11102 11.6889 9.38695 12.376 9.93882 12.9278C10.4907 13.4797 11.1777 13.7556 11.9999 13.7556Z" fill="white"/>
</g>
</svg>
