<svg width="24" height="24" viewBox="0 0 24 24" fill="none" xmlns="http://www.w3.org/2000/svg">
<mask id="mask0_460288_4960" style="mask-type:alpha" maskUnits="userSpaceOnUse" x="0" y="0" width="24" height="24">
<rect width="24" height="24" fill="#D9D9D9"/>
</mask>
<g mask="url(#mask0_460288_4960)">
<path d="M11.3 14.3L8.7 11.7C8.38333 11.3833 8.3125 11.0208 8.4875 10.6125C8.6625 10.2042 8.975 10 9.425 10H14.575C15.025 10 15.3375 10.2042 15.5125 10.6125C15.6875 11.0208 15.6167 11.3833 15.3 11.7L12.7 14.3C12.6 14.4 12.4917 14.475 12.375 14.525C12.2583 14.575 12.1333 14.6 12 14.6C11.8667 14.6 11.7417 14.575 11.625 14.525C11.5083 14.475 11.4 14.4 11.3 14.3Z" fill="#2A3647"/>
</g>
</svg>
