<svg width="24" height="24" viewBox="0 0 24 24" fill="none" xmlns="http://www.w3.org/2000/svg">
<mask id="mask0_460288_6018" style="mask-type:alpha" maskUnits="userSpaceOnUse" x="0" y="0" width="24" height="24">
<rect width="24" height="24" fill="#D9D9D9"/>
</mask>
<g mask="url(#mask0_460288_6018)">
<path d="M9.55069 15.15L18.0257 6.675C18.2257 6.475 18.4632 6.375 18.7382 6.375C19.0132 6.375 19.2507 6.475 19.4507 6.675C19.6507 6.875 19.7507 7.1125 19.7507 7.3875C19.7507 7.6625 19.6507 7.9 19.4507 8.1L10.2507 17.3C10.0507 17.5 9.81736 17.6 9.55069 17.6C9.28403 17.6 9.05069 17.5 8.85069 17.3L4.5507 13C4.3507 12.8 4.25486 12.5625 4.2632 12.2875C4.27153 12.0125 4.3757 11.775 4.5757 11.575C4.7757 11.375 5.0132 11.275 5.2882 11.275C5.5632 11.275 5.80069 11.375 6.00069 11.575L9.55069 15.15Z" fill="white"/>
</g>
</svg>
