<svg width="17" height="7" viewBox="0 0 17 7" fill="none" xmlns="http://www.w3.org/2000/svg">
<path d="M16.0685 6.33333H0.931507C0.684456 6.33333 0.447523 6.23448 0.272832 6.05852C0.0981406 5.88256 0 5.6439 0 5.39506C0 5.14621 0.0981406 4.90756 0.272832 4.7316C0.447523 4.55564 0.684456 4.45679 0.931507 4.45679H16.0685C16.3155 4.45679 16.5525 4.55564 16.7272 4.7316C16.9019 4.90756 17 5.14621 17 5.39506C17 5.6439 16.9019 5.88256 16.7272 6.05852C16.5525 6.23448 16.3155 6.33333 16.0685 6.33333Z" fill="#FF7A00"/>
<path d="M16.0685 1.87654H0.931507C0.684456 1.87654 0.447523 1.77769 0.272832 1.60173C0.0981406 1.42577 0 1.18712 0 0.938272C0 0.689426 0.0981406 0.450773 0.272832 0.274813C0.447523 0.0988533 0.684456 0 0.931507 0L16.0685 0C16.3155 0 16.5525 0.0988533 16.7272 0.274813C16.9019 0.450773 17 0.689426 17 0.938272C17 1.18712 16.9019 1.42577 16.7272 1.60173C16.5525 1.77769 16.3155 1.87654 16.0685 1.87654Z" fill="#FF7A00"/>
</svg>
