<svg width="23" height="25" viewBox="0 0 23 25" fill="none" xmlns="http://www.w3.org/2000/svg">
<path d="M11.25 20C10.0833 20 8.96875 20.1823 7.90625 20.5469C6.84375 20.9115 5.875 21.4583 5 22.1875V22.5H17.5V22.1875C16.625 21.4583 15.6562 20.9115 14.5938 20.5469C13.5312 20.1823 12.4167 20 11.25 20ZM2.5 21.0625C3.625 19.9583 4.93229 19.0885 6.42188 18.4531C7.91146 17.8177 9.52083 17.5 11.25 17.5C12.9792 17.5 14.5885 17.8177 16.0781 18.4531C17.5677 19.0885 18.875 19.9583 20 21.0625V5H2.5V21.0625ZM11.25 15C10.0417 15 9.01042 14.5729 8.15625 13.7188C7.30208 12.8646 6.875 11.8333 6.875 10.625C6.875 9.41667 7.30208 8.38542 8.15625 7.53125C9.01042 6.67708 10.0417 6.25 11.25 6.25C12.4583 6.25 13.4896 6.67708 14.3438 7.53125C15.1979 8.38542 15.625 9.41667 15.625 10.625C15.625 11.8333 15.1979 12.8646 14.3438 13.7188C13.4896 14.5729 12.4583 15 11.25 15ZM11.25 12.5C11.7708 12.5 12.2135 12.3177 12.5781 11.9531C12.9427 11.5885 13.125 11.1458 13.125 10.625C13.125 10.1042 12.9427 9.66146 12.5781 9.29688C12.2135 8.93229 11.7708 8.75 11.25 8.75C10.7292 8.75 10.2865 8.93229 9.92188 9.29688C9.55729 9.66146 9.375 10.1042 9.375 10.625C9.375 11.1458 9.55729 11.5885 9.92188 11.9531C10.2865 12.3177 10.7292 12.5 11.25 12.5ZM2.5 25C1.8125 25 1.22396 24.7552 0.734375 24.2656C0.244792 23.776 0 23.1875 0 22.5V5C0 4.3125 0.244792 3.72396 0.734375 3.23438C1.22396 2.74479 1.8125 2.5 2.5 2.5H3.75V0H6.25V2.5H16.25V0H18.75V2.5H20C20.6875 2.5 21.276 2.74479 21.7656 3.23438C22.2552 3.72396 22.5 4.3125 22.5 5V22.5C22.5 23.1875 22.2552 23.776 21.7656 24.2656C21.276 24.7552 20.6875 25 20 25H2.5Z" fill="#CDCDCD"/>
</svg>
