<svg width="30" height="25" viewBox="0 0 30 25" fill="none" xmlns="http://www.w3.org/2000/svg">
<path d="M22.727 2.27273L22.727 22.7271C22.7264 23.3296 22.4868 23.9074 22.0607 24.3334C21.6346 24.7595 21.0569 24.9992 20.4543 24.9998L15.9089 24.9998C15.3063 24.9992 14.7286 24.7595 14.3025 24.3334C13.8765 23.9074 13.6368 23.3296 13.6362 22.7271L13.6362 2.27273C13.6368 1.67015 13.8765 1.09243 14.3025 0.666347C14.7286 0.240262 15.3063 0.000623034 15.9089 2.02854e-05L20.4543 2.00867e-05C21.0569 0.000622783 21.6346 0.240262 22.0607 0.666347C22.4868 1.09243 22.7264 1.67015 22.727 2.27273ZM15.9089 22.7271L20.4543 22.7271L20.4543 2.27273L15.9089 2.27273L15.9089 22.7271ZM15.9089 2.27273L15.9089 22.7271C15.9083 23.3296 15.6687 23.9073 15.2426 24.3334C14.8165 24.7595 14.2388 24.9991 13.6362 24.9997L9.09081 24.9997C8.48824 24.9991 7.91052 24.7595 7.48443 24.3334C7.05835 23.9073 6.81871 23.3296 6.81811 22.727L6.81811 2.2727C6.81871 1.67013 7.05835 1.09241 7.48443 0.666322C7.91052 0.240238 8.48824 0.000602351 9.09081 -3.97372e-07L13.6362 -5.96058e-07C14.2388 0.0006021 14.8165 0.240238 15.2426 0.666322C15.6687 1.09241 15.9083 1.67015 15.9089 2.27273ZM9.09081 22.727L13.6362 22.7271L13.6362 2.27273L9.09081 2.2727L9.09081 22.727ZM9.09081 2.2727L9.09081 22.727C9.09021 23.3296 8.85057 23.9073 8.42449 24.3334C7.99841 24.7595 7.42068 24.9991 6.81811 24.9997L2.2727 24.9997C1.67013 24.9991 1.09241 24.7595 0.666324 24.3334C0.24024 23.9073 0.000601599 23.3296 -9.93547e-08 22.727L-9.93442e-07 2.2727C0.000600652 1.67013 0.240239 1.09241 0.666323 0.666323C1.09241 0.240238 1.67013 0.000602649 2.2727 -9.9343e-08L6.81811 -2.98029e-07C7.42068 0.000602398 7.9984 0.240238 8.42449 0.666322C8.85057 1.09241 9.09021 1.67013 9.09081 2.2727ZM2.2727 22.727L6.81811 22.727L6.81811 2.2727L2.2727 2.2727L2.2727 22.727Z" fill="#CDCDCD"/>
<path d="M29.5451 2.27298L29.5451 22.7273C29.5445 23.3299 29.3049 23.9076 28.8788 24.3337C28.4527 24.7598 27.875 24.9994 27.2724 25L22.727 25C22.1245 24.9994 21.5467 24.7598 21.1207 24.3337C20.6946 23.9076 20.4549 23.3296 20.4543 22.7271L20.4543 2.27273C20.4549 1.67015 20.6946 1.09268 21.1207 0.666598C21.5467 0.240514 22.1245 0.000876413 22.727 0.000273665L27.2724 0.000273466C27.875 0.000876162 28.4527 0.240514 28.8788 0.666598C29.3049 1.09268 29.5445 1.6704 29.5451 2.27298ZM22.727 22.7271L27.2724 22.7273L27.2724 2.27298L22.727 2.27273L22.727 22.7271Z" fill="#CDCDCD"/>
</svg>
