<svg width="25" height="26" viewBox="0 0 25 26" fill="none" xmlns="http://www.w3.org/2000/svg">
<path d="M2.43902 25.0305C1.76829 25.0305 1.19411 24.7917 0.716463 24.314C0.238821 23.8364 0 23.2622 0 22.5915V5.51829C0 4.84756 0.238821 4.27337 0.716463 3.79573C1.19411 3.31809 1.76829 3.07927 2.43902 3.07927H13.3232L10.8841 5.51829H2.43902V22.5915H19.5122V14.1159L21.9512 11.6768V22.5915C21.9512 23.2622 21.7124 23.8364 21.2348 24.314C20.7571 24.7917 20.1829 25.0305 19.5122 25.0305H2.43902ZM16.0671 3.78049L17.8049 5.4878L9.7561 13.5366V15.2744H11.4634L19.5427 7.19512L21.2805 8.90244L13.2012 16.9817C12.9776 17.2053 12.7185 17.3831 12.4238 17.5152C12.1291 17.6474 11.8191 17.7134 11.4939 17.7134H8.53659C8.19106 17.7134 7.90142 17.5965 7.66768 17.3628C7.43394 17.1291 7.31707 16.8394 7.31707 16.4939V13.5366C7.31707 13.2114 7.37805 12.9014 7.5 12.6067C7.62195 12.312 7.79472 12.0528 8.01829 11.8293L16.0671 3.78049ZM21.2805 8.90244L16.0671 3.78049L19.1159 0.731707C19.6037 0.243902 20.188 0 20.8689 0C21.5498 0 22.124 0.243902 22.5915 0.731707L24.2988 2.46951C24.7663 2.93699 25 3.5061 25 4.17683C25 4.84756 24.7663 5.41667 24.2988 5.88415L21.2805 8.90244Z" fill="#CDCDCD"/>
</svg>
