<svg width="25" height="25" viewBox="0 0 25 25" fill="none" xmlns="http://www.w3.org/2000/svg">
<path d="M22.7273 0H2.27273H2C0.89543 0 0 0.895729 0 2.0003C0 2.18009 0 2.30746 0 2.33997V22.7945V23C0 24.1046 0.895724 25 2.00029 25C2.14377 25 2.24401 25 2.27272 25H22.7273C22.756 25 22.8562 25 22.9997 25C24.1043 25 25 24.1041 25 22.9995C25 22.8927 25 22.8188 25 22.7945V2.33994C25 2.30744 25 2.18008 25 2.0003C25 0.895727 24.1043 0 22.9997 0C22.8562 0 22.756 0 22.7273 0ZM14.7727 22.7945H2.27273V13.7036H14.7727V22.7945ZM14.7727 11.4309H2.27273V2.33997L14.7727 2.33994V11.4309ZM22.7273 22.7945H17.0455V2.33997H22.7273V22.7945Z" fill="white"/>
</svg>
