<svg width="17" height="12" viewBox="0 0 17 12" fill="none" xmlns="http://www.w3.org/2000/svg">
<path d="M8.50014 4.75476C8.69957 4.75443 8.89385 4.81633 9.05439 4.93137L16.6229 10.3653C16.7214 10.4361 16.8045 10.525 16.8677 10.627C16.9308 10.7291 16.9726 10.8422 16.9908 10.9599C17.0275 11.1977 16.9655 11.4399 16.8185 11.6333C16.6715 11.8266 16.4515 11.9553 16.207 11.9909C15.9624 12.0266 15.7133 11.9664 15.5144 11.8234L8.50014 6.7925L1.48589 11.8234C1.38742 11.8942 1.27558 11.9454 1.15674 11.9742C1.03791 12.0029 0.914424 12.0086 0.793327 11.9909C0.672228 11.9733 0.555895 11.9326 0.450968 11.8712C0.346039 11.8099 0.25457 11.729 0.181786 11.6333C0.109001 11.5375 0.056324 11.4288 0.026764 11.3132C-0.0027961 11.1977 -0.00866118 11.0776 0.0095025 10.9599C0.0276681 10.8422 0.0695058 10.7291 0.132631 10.627C0.195755 10.525 0.278929 10.4361 0.377403 10.3653L7.94589 4.93137C8.10644 4.81633 8.30071 4.75443 8.50014 4.75476Z" fill="#FF0000"/>
<path d="M8.49996 -0.000120733C8.69939 -0.000454978 8.89366 0.061448 9.05421 0.176483L16.6227 5.61045C16.8216 5.75336 16.9539 5.96724 16.9906 6.20502C17.0273 6.4428 16.9653 6.68501 16.8183 6.87837C16.6713 7.07173 16.4513 7.20039 16.2068 7.23606C15.9622 7.27173 15.7131 7.21148 15.5142 7.06856L8.49996 2.03761L1.48571 7.06856C1.28684 7.21147 1.03771 7.27173 0.793144 7.23606C0.548574 7.20039 0.328598 7.07173 0.181602 6.87837C0.034607 6.68501 -0.0273646 6.4428 0.00931939 6.20502C0.0460053 5.96724 0.178343 5.75336 0.37722 5.61044L7.94571 0.176482C8.10625 0.0614479 8.30053 -0.000455013 8.49996 -0.000120733Z" fill="#FF0000"/>
</svg>
