<svg width="20" height="8" viewBox="0 0 20 8" fill="none" xmlns="http://www.w3.org/2000/svg">
<path d="M18.9041 7.45086H1.09589C0.805242 7.45086 0.526498 7.33456 0.320979 7.12755C0.11546 6.92054 0 6.63977 0 6.34701C0 6.05425 0.11546 5.77349 0.320979 5.56647C0.526498 5.35946 0.805242 5.24316 1.09589 5.24316H18.9041C19.1948 5.24316 19.4735 5.35946 19.679 5.56647C19.8845 5.77349 20 6.05425 20 6.34701C20 6.63977 19.8845 6.92054 19.679 7.12755C19.4735 7.33456 19.1948 7.45086 18.9041 7.45086Z" fill="white"/>
<path d="M18.9041 2.2077H1.09589C0.805242 2.2077 0.526498 2.0914 0.320979 1.88439C0.11546 1.67738 0 1.39661 0 1.10385C0 0.81109 0.11546 0.530322 0.320979 0.32331C0.526498 0.116298 0.805242 0 1.09589 0L18.9041 0C19.1948 0 19.4735 0.116298 19.679 0.32331C19.8845 0.530322 20 0.81109 20 1.10385C20 1.39661 19.8845 1.67738 19.679 1.88439C19.4735 2.0914 19.1948 2.2077 18.9041 2.2077Z" fill="white"/>
</svg>
