<svg width="69" height="69" viewBox="0 0 69 69" fill="none" xmlns="http://www.w3.org/2000/svg">
<circle cx="34.5" cy="34.5" r="34.5" fill="#2A3647"/>
<mask id="mask0_460288_6089" style="mask-type:alpha" maskUnits="userSpaceOnUse" x="18" y="18" width="33" height="33">
<rect x="18.5" y="18.5" width="32" height="32" fill="#D9D9D9"/>
</mask>
<g mask="url(#mask0_460288_6089)">
<path d="M25.1667 43.8332H27.0333L38.5333 32.3332L36.6667 30.4665L25.1667 41.9665V43.8332ZM44.2333 30.3998L38.5667 24.7998L40.4333 22.9332C40.9444 22.4221 41.5722 22.1665 42.3167 22.1665C43.0611 22.1665 43.6889 22.4221 44.2 22.9332L46.0667 24.7998C46.5778 25.3109 46.8444 25.9276 46.8667 26.6498C46.8889 27.3721 46.6444 27.9887 46.1333 28.4998L44.2333 30.3998ZM42.3 32.3665L28.1667 46.4998H22.5V40.8332L36.6333 26.6998L42.3 32.3665Z" fill="white"/>
</g>
</svg>
