<svg width="69" height="69" viewBox="0 0 69 69" fill="none" xmlns="http://www.w3.org/2000/svg">
<circle cx="34.5" cy="34.5" r="34.5" fill="white"/>
<mask id="mask0_62_588" style="mask-type:alpha" maskUnits="userSpaceOnUse" x="18" y="18" width="33" height="33">
<rect x="18.5" y="18.5" width="32" height="32" fill="#D9D9D9"/>
</mask>
<g mask="url(#mask0_62_588)">
<path d="M25.1667 43.8334H27.0333L38.5333 32.3334L36.6667 30.4667L25.1667 41.9667V43.8334ZM44.2333 30.4001L38.5667 24.8001L40.4333 22.9334C40.9444 22.4223 41.5722 22.1667 42.3167 22.1667C43.0611 22.1667 43.6889 22.4223 44.2 22.9334L46.0667 24.8001C46.5778 25.3112 46.8444 25.9279 46.8667 26.6501C46.8889 27.3723 46.6444 27.989 46.1333 28.5001L44.2333 30.4001ZM42.3 32.3667L28.1667 46.5001H22.5V40.8334L36.6333 26.7001L42.3 32.3667Z" fill="#2A3647"/>
</g>
</svg>
